<?xml version="1.0" encoding="UTF-8"?>
<svg id="Livello_4" data-name="Livello 4" xmlns="http://www.w3.org/2000/svg" viewBox="0 0 128 164">
  <defs>
    <style>
      .cls-1 {
        fill: #235643;
        stroke-width: 0px;
      }
    </style>
  </defs>
  <rect class="cls-1" x="45.17" y="51.99" width="37.67" height="10.46"/>
  <path class="cls-1" d="m74.46,72.92c-1.16,0-2.15.41-2.96,1.22-.81.81-1.22,1.8-1.22,2.96s.41,2.15,1.22,2.96c.81.81,1.8,1.22,2.96,1.22s2.15-.41,2.96-1.22c.81-.81,1.22-1.8,1.22-2.96s-.41-2.15-1.22-2.96c-.81-.81-1.8-1.22-2.96-1.22Z"/>
  <path class="cls-1" d="m53.54,72.92c-1.16,0-2.15.41-2.96,1.22-.81.81-1.22,1.8-1.22,2.96s.41,2.15,1.22,2.96c.81.81,1.8,1.22,2.96,1.22s2.15-.41,2.96-1.22c.81-.81,1.22-1.8,1.22-2.96s-.41-2.15-1.22-2.96c-.81-.81-1.8-1.22-2.96-1.22Z"/>
  <path class="cls-1" d="m64,0C31.92,0-.15,25.85-.15,62.31c0,62.92,64.15,101.69,64.15,101.69,0,0,64.15-38.77,64.15-101.69C128.15,25.85,96.08,0,64,0Zm25.11,79.2c0,1.86-.36,3.6-1.09,5.23s-1.76,2.99-3.1,4.1v7.41c0,.59-.2,1.09-.6,1.49s-.9.6-1.49.6h-4.18c-.59,0-1.09-.2-1.49-.6s-.6-.9-.6-1.49v-4.19h-25.11v4.19c0,.59-.2,1.09-.6,1.49s-.9.6-1.49.6h-4.19c-.59,0-1.09-.2-1.49-.6s-.6-.9-.6-1.49v-7.41c-1.34-1.1-2.37-2.47-3.1-4.1s-1.09-3.37-1.09-5.23v-31.39c0-4.18,1.69-7.32,5.06-9.42,3.37-2.09,10.06-3.14,20.05-3.14s16.61,1.05,20.01,3.14c3.4,2.09,5.1,5.23,5.1,9.42v31.39Z"/>
</svg>