<?xml version="1.0" encoding="UTF-8"?>
<svg id="Livello_4" data-name="Livello 4" xmlns="http://www.w3.org/2000/svg" viewBox="0 0 128 164">
  <defs>
    <style>
      .cls-1 {
        fill: #ac2939;
        stroke-width: 0px;
      }
    </style>
  </defs>
  <path class="cls-1" d="m71.39,74.07c-1.57-.12-2.97-.49-4.22-1.13s-2.3-1.48-3.17-2.52c-.93,1.04-2.01,1.88-3.26,2.52s-2.62,1.01-4.13,1.13c-.17,3.25-.38,6.55-.61,9.92-.23,3.36-.58,6.64-1.04,9.83h18.09c-.46-3.19-.81-6.47-1.04-9.83-.23-3.36-.43-6.67-.61-9.92Z"/>
  <path class="cls-1" d="m43.65,62.5h-10.96c0,1.51.54,2.8,1.61,3.87,1.07,1.07,2.36,1.61,3.87,1.61s2.87-.54,3.91-1.61c1.04-1.07,1.57-2.36,1.57-3.87Z"/>
  <path class="cls-1" d="m59.26,66.37c1.07-1.07,1.61-2.36,1.61-3.87h-10.96c0,1.51.52,2.8,1.57,3.87,1.04,1.07,2.35,1.61,3.91,1.61s2.8-.54,3.87-1.61Z"/>
  <path class="cls-1" d="m46.78,70.42c-.87.87-1.8,1.61-2.78,2.22-.99.61-2.12,1.06-3.39,1.35-.12,3.25-.28,6.57-.48,9.96s-.65,6.68-1.35,9.87h9.83c.52-3.36.91-6.78,1.17-10.26.26-3.48.48-6.96.65-10.44-.64-.23-1.3-.62-2-1.17-.7-.55-1.25-1.06-1.65-1.52Z"/>
  <path class="cls-1" d="m67.13,62.5c0,1.51.52,2.8,1.57,3.87,1.04,1.07,2.35,1.61,3.91,1.61s2.8-.54,3.87-1.61c1.07-1.07,1.61-2.36,1.61-3.87h-10.96Z"/>
  <path class="cls-1" d="m64,41.8c-2.67,2.2-5.47,4.55-8.39,7.05-2.93,2.49-6.71,4.96-11.35,7.39h39.49c-4.64-2.44-8.44-4.9-11.39-7.39-2.96-2.49-5.74-4.84-8.35-7.05Z"/>
  <path class="cls-1" d="m89.83,67.98c1.51,0,2.8-.54,3.87-1.61,1.07-1.07,1.61-2.36,1.61-3.87h-10.96c0,1.51.52,2.8,1.57,3.87,1.04,1.07,2.35,1.61,3.91,1.61Z"/>
  <path class="cls-1" d="m64,0C32,0,0,26.24,0,62.62c0,62.77,64,101.38,64,101.38,0,0,64-38.61,64-101.38C128,26.24,96,0,64,0Zm37.57,62.77c0,2.61-.78,4.9-2.35,6.87-1.57,1.97-3.45,3.36-5.65,4.18.12,4,.41,8.28.87,12.83.46,4.55,1.45,9.12,2.96,13.7H30.6c1.51-4.58,2.48-9.15,2.91-13.7.43-4.55.71-8.83.83-12.83-2.2-.81-4.07-2.2-5.61-4.18-1.54-1.97-2.3-4.26-2.3-6.87v-6.26c6.67-1.45,13.44-4.46,20.31-9.05,6.87-4.58,12.63-9.22,17.27-13.92,4.7,4.87,10.42,9.54,17.18,14,6.76,4.46,13.55,7.45,20.4,8.96v6.26Z"/>
  <path class="cls-1" d="m79.53,71.9c-.67.52-1.32.9-1.96,1.13.17,3.48.41,6.97.7,10.48s.67,6.94,1.13,10.31h9.83c-.7-3.19-1.15-6.48-1.35-9.87s-.36-6.71-.48-9.96c-1.22-.29-2.35-.74-3.39-1.35s-1.97-1.35-2.78-2.22c-.46.46-1.03.96-1.7,1.48Z"/>
</svg>