<?xml version="1.0" encoding="UTF-8"?>
<svg id="Livello_4" data-name="Livello 4" xmlns="http://www.w3.org/2000/svg" viewBox="0 0 128 164">
  <defs>
    <style>
      .cls-1 {
        fill: #235643;
        stroke-width: 0px;
      }
    </style>
  </defs>
  <rect class="cls-1" x="32.61" y="48.86" width="12.55" height="10.46"/>
  <path class="cls-1" d="m82.84,76.06c-1.17,0-2.16.4-2.97,1.21-.81.81-1.22,1.8-1.22,2.96s.4,2.16,1.21,2.97c.81.81,1.8,1.22,2.96,1.22s2.16-.4,2.97-1.21c.81-.81,1.22-1.8,1.22-2.96s-.4-2.16-1.21-2.97c-.81-.81-1.8-1.22-2.96-1.22Z"/>
  <path class="cls-1" d="m45.18,76.06c-1.17,0-2.16.4-2.97,1.21-.81.81-1.22,1.8-1.22,2.96s.4,2.16,1.21,2.97c.81.81,1.8,1.22,2.96,1.22s2.16-.4,2.97-1.21c.81-.81,1.22-1.8,1.22-2.96s-.4-2.16-1.21-2.97c-.81-.81-1.8-1.22-2.96-1.22Z"/>
  <rect class="cls-1" x="51.44" y="48.86" width="12.56" height="10.46"/>
  <path class="cls-1" d="m64,0C31.92,0-.15,25.85-.15,62.31c0,62.92,64.15,101.69,64.15,101.69,0,0,64.15-38.77,64.15-101.69C128.15,25.85,96.08,0,64,0Zm37.67,80.24h-8.37c0,2.91-1.02,5.38-3.05,7.41-2.03,2.03-4.5,3.05-7.41,3.05s-5.38-1.02-7.41-3.05c-2.03-2.03-3.05-4.5-3.05-7.41h-16.74c0,2.91-1.02,5.38-3.05,7.41-2.03,2.03-4.5,3.05-7.41,3.05s-5.38-1.02-7.41-3.05c-2.03-2.03-3.05-4.5-3.05-7.41h-8.37v-31.39c0-1.73.61-3.2,1.84-4.43,1.23-1.23,2.71-1.84,4.43-1.84h48.13l20.93,20.93v16.74Z"/>
  <polygon class="cls-1" points="70.28 48.86 70.28 59.32 88.59 59.32 78.12 48.86 70.28 48.86"/>
</svg>